<svg viewBox="0 0 48 48" xmlns="http://www.w3.org/2000/svg">
<path d="M4 24C4 35.0462 12.9538 44 24 44C35.0462 44 44 35.0462 44 24C44 12.9538 35.0462 4 24 4C12.9538 4 4 12.9538 4 24ZM24 15.2821C24.408 15.2821 24.7993 15.4441 25.0879 15.7327C25.3764 16.0212 25.5385 16.4125 25.5385 16.8205V21.321L29.3785 19.081C29.731 18.8754 30.1508 18.8182 30.5455 18.9221C30.9402 19.0259 31.2774 19.2823 31.4831 19.6349C31.6887 19.9874 31.7459 20.4072 31.642 20.8019C31.5382 21.1966 31.2818 21.5338 30.9292 21.7395L27.0523 24L30.9292 26.2605C31.1038 26.3623 31.2566 26.4975 31.3789 26.6584C31.5012 26.8193 31.5906 27.0027 31.642 27.1981C31.6935 27.3935 31.7059 27.5972 31.6786 27.7974C31.6514 27.9977 31.5849 28.1906 31.4831 28.3651C31.3813 28.5397 31.246 28.6925 31.0852 28.8148C30.9243 28.9371 30.7409 29.0265 30.5455 29.0779C30.35 29.1294 30.1464 29.1418 29.9462 29.1145C29.7459 29.0872 29.553 29.0208 29.3785 28.919L25.5385 26.679V31.1795C25.5385 31.5875 25.3764 31.9788 25.0879 32.2673C24.7993 32.5559 24.408 32.718 24 32.718C23.592 32.718 23.2007 32.5559 22.9121 32.2673C22.6236 31.9788 22.4615 31.5875 22.4615 31.1795V26.679L18.6215 28.919C18.447 29.0208 18.2541 29.0872 18.0538 29.1145C17.8536 29.1418 17.65 29.1294 17.4545 29.0779C17.2591 29.0265 17.0757 28.9371 16.9148 28.8148C16.754 28.6925 16.6187 28.5397 16.5169 28.3651C16.4151 28.1906 16.3487 27.9977 16.3214 27.7974C16.2941 27.5972 16.3065 27.3935 16.358 27.1981C16.4094 27.0027 16.4988 26.8193 16.6211 26.6584C16.7434 26.4975 16.8962 26.3623 17.0708 26.2605L20.9477 24L17.0708 21.7395C16.8962 21.6377 16.7434 21.5025 16.6211 21.3416C16.4988 21.1807 16.4094 20.9973 16.358 20.8019C16.3065 20.6065 16.2941 20.4028 16.3214 20.2026C16.3487 20.0023 16.4151 19.8094 16.5169 19.6349C16.6187 19.4603 16.754 19.3075 16.9148 19.1852C17.0757 19.0629 17.2591 18.9735 17.4545 18.9221C17.65 18.8706 17.8536 18.8582 18.0538 18.8855C18.2541 18.9128 18.447 18.9792 18.6215 19.081L22.4615 21.321V16.8205C22.4615 16.4125 22.6236 16.0212 22.9121 15.7327C23.2007 15.4441 23.592 15.2821 24 15.2821Z" fill="#5A0619"/>
</svg>
