<svg viewBox="0 0 48 48" xmlns="http://www.w3.org/2000/svg">
<path d="M24 42.0003C23.4333 42.0003 22.9587 41.8083 22.576 41.4243C22.1933 41.0403 22.0013 40.5656 22 40.0003V28.8003L14.1 36.7503C13.7 37.1503 13.2253 37.3503 12.676 37.3503C12.1267 37.3503 11.6513 37.1503 11.25 36.7503C10.8487 36.3503 10.6487 35.8756 10.65 35.3263C10.6513 34.7769 10.8513 34.3016 11.25 33.9003L19.2 26.0003H8.00001C7.43334 26.0003 6.95867 25.8083 6.57601 25.4243C6.19334 25.0403 6.00134 24.5656 6.00001 24.0003C5.99867 23.4349 6.19067 22.9603 6.57601 22.5763C6.96134 22.1923 7.43601 22.0003 8.00001 22.0003H19.2L11.25 14.1003C10.85 13.7003 10.65 13.2256 10.65 12.6763C10.65 12.1269 10.85 11.6516 11.25 11.2503C11.65 10.8489 12.1253 10.6489 12.676 10.6503C13.2267 10.6516 13.7013 10.8516 14.1 11.2503L22 19.2003V8.00025C22 7.43358 22.192 6.95892 22.576 6.57625C22.96 6.19358 23.4347 6.00158 24 6.00025C24.5653 5.99892 25.0407 6.19092 25.426 6.57625C25.8113 6.96158 26.0027 7.43625 26 8.00025V19.2003L33.9 11.2503C34.3 10.8503 34.7753 10.6503 35.326 10.6503C35.8767 10.6503 36.3513 10.8503 36.75 11.2503C37.1487 11.6503 37.3487 12.1256 37.35 12.6763C37.3513 13.2269 37.1513 13.7016 36.75 14.1003L28.8 22.0003H40C40.5667 22.0003 41.042 22.1923 41.426 22.5763C41.81 22.9603 42.0013 23.4349 42 24.0003C41.9987 24.5656 41.8067 25.0409 41.424 25.4263C41.0413 25.8116 40.5667 26.0029 40 26.0003H28.8L36.75 33.9003C37.15 34.3003 37.35 34.7756 37.35 35.3263C37.35 35.8769 37.15 36.3516 36.75 36.7503C36.35 37.1489 35.8753 37.3489 35.326 37.3503C34.7767 37.3516 34.3013 37.1516 33.9 36.7503L26 28.8003V40.0003C26 40.5669 25.808 41.0423 25.424 41.4263C25.04 41.8102 24.5653 42.0016 24 42.0003Z" fill="#5A0619"/>
</svg>
