<svg viewBox="0 0 48 48" xmlns="http://www.w3.org/2000/svg">
<path d="M36 22.0002H12V12.0002H36M33 34.0002C32.2044 34.0002 31.4413 33.6842 30.8787 33.1216C30.3161 32.559 30 31.7959 30 31.0002C30 30.2046 30.3161 29.4415 30.8787 28.8789C31.4413 28.3163 32.2044 28.0002 33 28.0002C33.7956 28.0002 34.5587 28.3163 35.1213 28.8789C35.6839 29.4415 36 30.2046 36 31.0002C36 31.7959 35.6839 32.559 35.1213 33.1216C34.5587 33.6842 33.7956 34.0002 33 34.0002ZM15 34.0002C14.2044 34.0002 13.4413 33.6842 12.8787 33.1216C12.3161 32.559 12 31.7959 12 31.0002C12 30.2046 12.3161 29.4415 12.8787 28.8789C13.4413 28.3163 14.2044 28.0002 15 28.0002C15.7956 28.0002 16.5587 28.3163 17.1213 28.8789C17.6839 29.4415 18 30.2046 18 31.0002C18 31.7959 17.6839 32.559 17.1213 33.1216C16.5587 33.6842 15.7956 34.0002 15 34.0002ZM8 32.0002C8 33.7602 8.78 35.3402 10 36.4402V40.0002C10 40.5307 10.2107 41.0394 10.5858 41.4145C10.9609 41.7895 11.4696 42.0002 12 42.0002H14C14.5304 42.0002 15.0391 41.7895 15.4142 41.4145C15.7893 41.0394 16 40.5307 16 40.0002V38.0002H32V40.0002C32 40.5307 32.2107 41.0394 32.5858 41.4145C32.9609 41.7895 33.4696 42.0002 34 42.0002H36C36.5304 42.0002 37.0391 41.7895 37.4142 41.4145C37.7893 41.0394 38 40.5307 38 40.0002V36.4402C39.22 35.3402 40 33.7602 40 32.0002V12.0002C40 5.00024 32.84 4.00024 24 4.00024C15.16 4.00024 8 5.00024 8 12.0002V32.0002Z" fill="#5A0619"/>
</svg>
