<svg width="48" height="48" viewBox="0 0 48 48" fill="none" xmlns="http://www.w3.org/2000/svg">
<path d="M3 35.2502C3 36.6426 3.55312 37.978 4.53769 38.9626C5.52226 39.9471 6.85761 40.5002 8.25 40.5002H39.75C41.1424 40.5002 42.4777 39.9471 43.4623 38.9626C44.4469 37.978 45 36.6426 45 35.2502V20.8127H3V35.2502ZM9.1875 28.1252C9.1875 27.3793 9.48382 26.664 10.0113 26.1365C10.5387 25.6091 11.2541 25.3127 12 25.3127H16.5C17.2459 25.3127 17.9613 25.6091 18.4887 26.1365C19.0162 26.664 19.3125 27.3793 19.3125 28.1252V30.0002C19.3125 30.7462 19.0162 31.4615 18.4887 31.989C17.9613 32.5164 17.2459 32.8127 16.5 32.8127H12C11.2541 32.8127 10.5387 32.5164 10.0113 31.989C9.48382 31.4615 9.1875 30.7462 9.1875 30.0002V28.1252ZM39.75 7.50024H8.25C6.85761 7.50024 5.52226 8.05337 4.53769 9.03793C3.55312 10.0225 3 11.3579 3 12.7502V15.1877H45V12.7502C45 11.3579 44.4469 10.0225 43.4623 9.03793C42.4777 8.05337 41.1424 7.50024 39.75 7.50024Z" fill="#5A0619"/>
</svg>
