<svg viewBox="0 0 48 48" xmlns="http://www.w3.org/2000/svg">
<mask id="mask0_852_7274" style="mask-type:luminance" maskUnits="userSpaceOnUse" x="2" y="2" width="44" height="45">
<path d="M24 44.0003C26.6269 44.0035 29.2286 43.4876 31.6555 42.4823C34.0825 41.477 36.2868 40.0021 38.142 38.1423C40.0019 36.2871 41.4768 34.0827 42.4821 31.6558C43.4874 29.2288 44.0033 26.6272 44 24.0003C44.0033 21.3734 43.4874 18.7717 42.4821 16.3447C41.4768 13.9178 40.0019 11.7134 38.142 9.85826C36.2868 7.99842 34.0825 6.52348 31.6555 5.51817C29.2286 4.51287 26.6269 3.99702 24 4.00026C21.3731 3.99702 18.7714 4.51287 16.3445 5.51817C13.9176 6.52348 11.7132 7.99842 9.85802 9.85826C7.99818 11.7134 6.52323 13.9178 5.51793 16.3447C4.51263 18.7717 3.99678 21.3734 4.00002 24.0003C3.99678 26.6272 4.51263 29.2288 5.51793 31.6558C6.52323 34.0827 7.99818 36.2871 9.85802 38.1423C11.7132 40.0021 13.9176 41.477 16.3445 42.4823C18.7714 43.4876 21.3731 44.0035 24 44.0003Z" fill="white" stroke="white" stroke-width="4" stroke-linejoin="round"/>
<path d="M16 24.0002L22 30.0002L34 18.0002" stroke="black" stroke-width="4" stroke-linecap="round" stroke-linejoin="round"/>
</mask>
<g mask="url(#mask0_852_7274)">
<path d="M0 0.000244141H48V48.0002H0V0.000244141Z" fill="#5A0619"/>
</g>
</svg>
