<svg width="48" height="48" viewBox="0 0 48 48" fill="none" xmlns="http://www.w3.org/2000/svg">
<path d="M23.9996 26.8003L14.1996 36.6003C13.8329 36.967 13.3663 37.1503 12.7996 37.1503C12.2329 37.1503 11.7663 36.967 11.3996 36.6003C11.0329 36.2337 10.8496 35.767 10.8496 35.2003C10.8496 34.6337 11.0329 34.167 11.3996 33.8003L21.1996 24.0003L11.3996 14.2003C11.0329 13.8337 10.8496 13.367 10.8496 12.8003C10.8496 12.2337 11.0329 11.767 11.3996 11.4003C11.7663 11.0337 12.2329 10.8503 12.7996 10.8503C13.3663 10.8503 13.8329 11.0337 14.1996 11.4003L23.9996 21.2003L33.7996 11.4003C34.1663 11.0337 34.6329 10.8503 35.1996 10.8503C35.7663 10.8503 36.2329 11.0337 36.5996 11.4003C36.9663 11.767 37.1496 12.2337 37.1496 12.8003C37.1496 13.367 36.9663 13.8337 36.5996 14.2003L26.7996 24.0003L36.5996 33.8003C36.9663 34.167 37.1496 34.6337 37.1496 35.2003C37.1496 35.767 36.9663 36.2337 36.5996 36.6003C36.2329 36.967 35.7663 37.1503 35.1996 37.1503C34.6329 37.1503 34.1663 36.967 33.7996 36.6003L23.9996 26.8003Z" fill="#5A0619"/>
</svg>
