<svg width="48" height="48" viewBox="0 0 48 48" fill="none" xmlns="http://www.w3.org/2000/svg">
<path fill-rule="evenodd" clip-rule="evenodd" d="M24 4C12.9538 4 4 12.9538 4 24C4 35.0462 12.9538 44 24 44C35.0462 44 44 35.0462 44 24C44 12.9538 35.0462 4 24 4ZM20.0985 18.56C21.1255 17.5326 22.4226 16.817 23.8394 16.4961C25.2563 16.1752 26.7351 16.2621 28.1046 16.7467C28.2952 16.8137 28.4971 16.8426 28.6989 16.8317C28.9006 16.8207 29.0982 16.7701 29.2804 16.6828C29.4626 16.5954 29.6258 16.4731 29.7607 16.3227C29.8956 16.1722 29.9996 15.9967 30.0667 15.8062C30.1337 15.6156 30.1626 15.4136 30.1517 15.2119C30.1407 15.0101 30.0901 14.8125 30.0028 14.6303C29.9154 14.4481 29.7931 14.2849 29.6427 14.15C29.4922 14.0151 29.3167 13.9112 29.1262 13.8441C26.6137 12.9558 23.8612 13.0306 21.4007 14.054C18.9402 15.0774 16.9466 16.9766 15.8051 19.3846H14.7692C14.3612 19.3846 13.9699 19.5467 13.6814 19.8352C13.3929 20.1237 13.2308 20.5151 13.2308 20.9231C13.2308 21.3311 13.3929 21.7224 13.6814 22.0109C13.9699 22.2995 14.3612 22.4615 14.7692 22.4615H14.88C14.7341 23.482 14.7341 24.518 14.88 25.5385H14.7692C14.3612 25.5385 13.9699 25.7006 13.6814 25.9891C13.3929 26.2776 13.2308 26.6689 13.2308 27.0769C13.2308 27.4849 13.3929 27.8763 13.6814 28.1648C13.9699 28.4533 14.3612 28.6154 14.7692 28.6154H15.8051C16.9466 31.0234 18.9402 32.9226 21.4007 33.946C23.8612 34.9694 26.6137 35.0442 29.1262 34.1559C29.3167 34.0888 29.4922 33.9849 29.6427 33.85C29.7931 33.7151 29.9154 33.5519 30.0028 33.3697C30.0901 33.1875 30.1407 32.9899 30.1517 32.7881C30.1626 32.5864 30.1337 32.3844 30.0667 32.1938C29.9996 32.0033 29.8956 31.8278 29.7607 31.6773C29.6258 31.5269 29.4626 31.4046 29.2804 31.3172C29.0982 31.2299 28.9006 31.1793 28.6989 31.1683C28.4971 31.1574 28.2952 31.1863 28.1046 31.2533C26.5594 31.8003 24.8799 31.8393 23.311 31.3648C21.742 30.8903 20.3656 29.927 19.3826 28.6154H25.5385C25.9465 28.6154 26.3378 28.4533 26.6263 28.1648C26.9148 27.8763 27.0769 27.4849 27.0769 27.0769C27.0769 26.6689 26.9148 26.2776 26.6263 25.9891C26.3378 25.7006 25.9465 25.5385 25.5385 25.5385H18C17.7956 24.523 17.7956 23.477 18 22.4615H25.5385C25.9465 22.4615 26.3378 22.2995 26.6263 22.0109C26.9148 21.7224 27.0769 21.3311 27.0769 20.9231C27.0769 20.5151 26.9148 20.1237 26.6263 19.8352C26.3378 19.5467 25.9465 19.3846 25.5385 19.3846H19.3846C19.6007 19.0974 19.8386 18.8226 20.0985 18.56Z" fill="#5A0619"/>
</svg>
