<svg width="48" height="48" viewBox="0 0 48 48" fill="none" xmlns="http://www.w3.org/2000/svg">
<path d="M42.2649 17.0591H5.73547C5.19723 17.0591 4.68104 16.8453 4.30046 16.4647C3.91987 16.0841 3.70605 15.5679 3.70605 15.0297C3.70605 14.4914 3.91987 13.9752 4.30046 13.5946C4.68104 13.2141 5.19723 13.0002 5.73547 13.0002H42.2649C42.8031 13.0002 43.3193 13.2141 43.6999 13.5946C44.0805 13.9752 44.2943 14.4914 44.2943 15.0297C44.2943 15.5679 44.0805 16.0841 43.6999 16.4647C43.3193 16.8453 42.8031 17.0591 42.2649 17.0591ZM35.5002 26.5297H12.5002C11.9619 26.5297 11.4457 26.3158 11.0652 25.9353C10.6846 25.5547 10.4708 25.0385 10.4708 24.5002C10.4708 23.962 10.6846 23.4458 11.0652 23.0652C11.4457 22.6846 11.9619 22.4708 12.5002 22.4708H35.5002C36.0384 22.4708 36.5546 22.6846 36.9352 23.0652C37.3158 23.4458 37.5296 23.962 37.5296 24.5002C37.5296 25.0385 37.3158 25.5547 36.9352 25.9353C36.5546 26.3158 36.0384 26.5297 35.5002 26.5297ZM27.3825 36.0002H20.6178C20.0796 36.0002 19.5634 35.7864 19.1828 35.4058C18.8022 35.0253 18.5884 34.5091 18.5884 33.9708C18.5884 33.4326 18.8022 32.9164 19.1828 32.5358C19.5634 32.1552 20.0796 31.9414 20.6178 31.9414H27.3825C27.9208 31.9414 28.4369 32.1552 28.8175 32.5358C29.1981 32.9164 29.4119 33.4326 29.4119 33.9708C29.4119 34.5091 29.1981 35.0253 28.8175 35.4058C28.4369 35.7864 27.9208 36.0002 27.3825 36.0002Z" fill="#5A0619"/>
</svg>
