<svg viewBox="0 0 48 48" xmlns="http://www.w3.org/2000/svg">
<path d="M36 26.0002C36.5667 26.0002 37.042 25.8082 37.426 25.4242C37.81 25.0402 38.0013 24.5656 38 24.0002C37.9987 23.4349 37.8067 22.9602 37.424 22.5762C37.0413 22.1922 36.5667 22.0002 36 22.0002H30C29.4333 22.0002 28.9587 22.1922 28.576 22.5762C28.1933 22.9602 28.0013 23.4349 28 24.0002C27.9987 24.5656 28.1907 25.0409 28.576 25.4262C28.9613 25.8116 29.436 26.0029 30 26.0002H36ZM36 20.0002C36.5667 20.0002 37.042 19.8082 37.426 19.4242C37.81 19.0402 38.0013 18.5656 38 18.0002C37.9987 17.4349 37.8067 16.9602 37.424 16.5762C37.0413 16.1922 36.5667 16.0002 36 16.0002H30C29.4333 16.0002 28.9587 16.1922 28.576 16.5762C28.1933 16.9602 28.0013 17.4349 28 18.0002C27.9987 18.5656 28.1907 19.0409 28.576 19.4262C28.9613 19.8116 29.436 20.0029 30 20.0002H36ZM18 26.0002C16.8 26.0002 15.7167 26.1089 14.75 26.3262C13.7833 26.5436 12.9333 26.8849 12.2 27.3502C11.5 27.7836 10.9667 28.2756 10.6 28.8262C10.2333 29.3769 10.05 29.9682 10.05 30.6002C10.05 31.0002 10.2 31.3336 10.5 31.6002C10.8 31.8669 11.1667 32.0002 11.6 32.0002H24.4C24.8333 32.0002 25.2 31.8582 25.5 31.5742C25.8 31.2902 25.95 30.9322 25.95 30.5002C25.95 29.9336 25.7667 29.3836 25.4 28.8502C25.0333 28.3169 24.5 27.8169 23.8 27.3502C23.0667 26.8836 22.2167 26.5416 21.25 26.3242C20.2833 26.1069 19.2 25.9989 18 26.0002ZM18 24.0002C19.1 24.0002 20.0413 23.6089 20.824 22.8262C21.6067 22.0436 21.9987 21.1016 22 20.0002C22.0013 18.8989 21.61 17.9576 20.826 17.1762C20.042 16.3949 19.1 16.0029 18 16.0002C16.9 15.9976 15.9587 16.3896 15.176 17.1762C14.3933 17.9629 14.0013 18.9042 14 20.0002C13.9987 21.0962 14.3907 22.0382 15.176 22.8262C15.9613 23.6142 16.9027 24.0056 18 24.0002ZM8 40.0002C6.9 40.0002 5.95867 39.6089 5.176 38.8262C4.39333 38.0436 4.00133 37.1016 4 36.0002V12.0002C4 10.9002 4.392 9.95891 5.176 9.17624C5.96 8.39358 6.90133 8.00158 8 8.00024H40C41.1 8.00024 42.042 8.39224 42.826 9.17624C43.61 9.96024 44.0013 10.9016 44 12.0002V36.0002C44 37.1002 43.6087 38.0422 42.826 38.8262C42.0433 39.6102 41.1013 40.0016 40 40.0002H8Z" fill="#5A0619"/>
</svg>
