<svg width="48" height="48" viewBox="0 0 48 48" fill="none" xmlns="http://www.w3.org/2000/svg">
<path d="M24 4C20.0444 4 16.1776 5.17298 12.8886 7.37061C9.59962 9.56824 7.03617 12.6918 5.52242 16.3463C4.00867 20.0009 3.6126 24.0222 4.3843 27.9018C5.15601 31.7814 7.06082 35.3451 9.85787 38.1421C12.6549 40.9392 16.2186 42.844 20.0982 43.6157C23.9778 44.3874 27.9992 43.9913 31.6537 42.4776C35.3082 40.9638 38.4318 38.4004 40.6294 35.1114C42.827 31.8224 44 27.9556 44 24C43.9948 18.6973 41.886 13.6132 38.1364 9.86357C34.3868 6.11396 29.3027 4.00517 24 4ZM24 13.1512C24.5149 13.1589 25.0059 13.3699 25.3659 13.7381C25.7259 14.1063 25.9258 14.6019 25.9219 15.1169C25.918 15.6318 25.7108 16.1243 25.3453 16.4871C24.9798 16.8499 24.4857 17.0534 23.9707 17.0534C23.4558 17.0534 22.9617 16.8499 22.5962 16.4871C22.2307 16.1243 22.0234 15.6318 22.0196 15.1169C22.0157 14.6019 22.2156 14.1063 22.5756 13.7381C22.9356 13.3699 23.4266 13.1589 23.9415 13.1512H24ZM25.9512 34.2829C25.9512 34.8004 25.7457 35.2967 25.3797 35.6626C25.0138 36.0286 24.5175 36.2341 24 36.2341C23.4825 36.2341 22.9862 36.0286 22.6203 35.6626C22.2544 35.2967 22.0488 34.8004 22.0488 34.2829V21.9317C22.0488 21.4142 22.2544 20.9179 22.6203 20.552C22.9862 20.1861 23.4825 19.9805 24 19.9805C24.5175 19.9805 25.0138 20.1861 25.3797 20.552C25.7457 20.9179 25.9512 21.4142 25.9512 21.9317V34.2829Z" fill="#5A0619"/>
</svg>
