<svg width="48" height="48" viewBox="0 0 48 48" fill="none" xmlns="http://www.w3.org/2000/svg">
<path d="M8 40.0002C6.9 40.0002 5.95867 39.6089 5.176 38.8262C4.39333 38.0436 4.00133 37.1016 4 36.0002V12.0002C4 10.9002 4.392 9.95891 5.176 9.17624C5.96 8.39358 6.90133 8.00158 8 8.00024H40C41.1 8.00024 42.042 8.39224 42.826 9.17624C43.61 9.96024 44.0013 10.9016 44 12.0002V36.0002C44 37.1002 43.6087 38.0422 42.826 38.8262C42.0433 39.6102 41.1013 40.0016 40 40.0002H8ZM24 25.6502C24.1667 25.6502 24.342 25.6249 24.526 25.5742C24.71 25.5236 24.8847 25.4489 25.05 25.3502L39.2 16.5002C39.4667 16.3336 39.6667 16.1256 39.8 15.8762C39.9333 15.6269 40 15.3516 40 15.0502C40 14.3836 39.7167 13.8836 39.15 13.5502C38.5833 13.2169 38 13.2336 37.4 13.6002L24 22.0002L10.6 13.6002C10 13.2336 9.41667 13.2256 8.85 13.5762C8.28333 13.9269 8 14.4182 8 15.0502C8 15.3836 8.06667 15.6756 8.2 15.9262C8.33333 16.1769 8.53333 16.3682 8.8 16.5002L22.95 25.3502C23.1167 25.4502 23.292 25.5256 23.476 25.5762C23.66 25.6269 23.8347 25.6516 24 25.6502Z" fill="#5A0619"/>
</svg>
