<svg viewBox="0 0 48 48" xmlns="http://www.w3.org/2000/svg">
<path fill-rule="evenodd" clip-rule="evenodd" d="M33.104 44.2662C30.224 44.1602 22.062 43.0322 13.514 34.4862C4.968 25.9382 3.842 17.7782 3.734 14.8962C3.574 10.5042 6.938 6.23819 10.824 4.57219C11.292 4.37012 11.8044 4.29319 12.3111 4.34894C12.8177 4.40469 13.3012 4.59121 13.714 4.89019C16.914 7.22219 19.122 10.7502 21.018 13.5242C21.4352 14.1336 21.6135 14.8753 21.5191 15.6078C21.4247 16.3403 21.0641 17.0124 20.506 17.4962L16.604 20.3942C16.4155 20.5303 16.2828 20.7302 16.2306 20.9568C16.1783 21.1834 16.2101 21.4213 16.32 21.6262C17.204 23.2322 18.776 25.6242 20.576 27.4242C22.376 29.2242 24.882 30.9002 26.6 31.8842C26.8154 32.0051 27.069 32.0389 27.3085 31.9786C27.5481 31.9184 27.7554 31.7686 27.888 31.5602L30.428 27.6942C30.895 27.0739 31.5839 26.6583 32.3504 26.5346C33.1169 26.4108 33.9015 26.5884 34.54 27.0302C37.354 28.9782 40.638 31.1482 43.042 34.2262C43.3653 34.642 43.5709 35.137 43.6374 35.6595C43.7039 36.1819 43.6288 36.7127 43.42 37.1962C41.746 41.1022 37.51 44.4282 33.104 44.2662Z" fill="#5A0619"/>
</svg>
