<svg width="48" height="48" viewBox="0 0 48 48" fill="none" xmlns="http://www.w3.org/2000/svg">
<path fill-rule="evenodd" clip-rule="evenodd" d="M24.5 47.0002C30.4674 47.0002 36.1903 44.6297 40.4099 40.4101C44.6295 36.1906 47 30.4676 47 24.5002C47 18.5329 44.6295 12.8099 40.4099 8.59034C36.1903 4.37077 30.4674 2.00024 24.5 2.00024C18.5326 2.00024 12.8097 4.37077 8.5901 8.59034C4.37053 12.8099 2 18.5329 2 24.5002C2 30.4676 4.37053 36.1906 8.5901 40.4101C12.8097 44.6297 18.5326 47.0002 24.5 47.0002ZM15.8572 16.0346C15.0566 17.2421 14.6562 18.4327 14.6562 19.6065C14.6562 20.1784 14.9094 20.709 15.4156 21.1984C15.9219 21.6877 16.5416 21.9315 17.2747 21.9296C18.5216 21.9296 19.3681 21.2302 19.8144 19.8315C20.2869 18.4946 20.8644 17.4821 21.5469 16.794C22.2294 16.1077 23.2925 15.7646 24.7362 15.7646C25.97 15.7646 26.9778 16.1049 27.7597 16.7856C28.5397 17.4681 28.9297 18.3043 28.9297 19.2943C28.9331 19.791 28.8008 20.2792 28.5472 20.7062C28.2866 21.1397 27.9687 21.5361 27.6022 21.8846C27.0108 22.4262 26.403 22.9495 25.7797 23.454C24.8234 24.2471 24.0622 24.9315 23.4959 25.5071C22.9334 26.0846 22.4806 26.7531 22.1375 27.5124C21.2319 31.014 25.9344 31.2952 27.02 28.7949C27.1512 28.5549 27.3509 28.2887 27.6191 27.9962C27.8891 27.7056 28.2472 27.3681 28.6934 26.9837C29.8314 26.036 30.951 25.0664 32.0516 24.0756C32.6741 23.5018 33.2113 22.8174 33.6631 22.0224C34.1299 21.176 34.3647 20.2213 34.3438 19.2549C34.3438 17.9199 33.9463 16.6824 33.1513 15.5424C32.3581 14.4006 31.2331 13.4987 29.7763 12.8368C28.3194 12.1749 26.6394 11.844 24.7362 11.844C22.6887 11.844 20.8972 12.2406 19.3616 13.0337C17.8259 13.8268 16.6578 14.829 15.8572 16.0346ZM21.8759 35.9471C21.8759 36.693 22.1723 37.4084 22.6997 37.9359C23.2271 38.4633 23.9425 38.7596 24.6884 38.7596C25.4344 38.7596 26.1497 38.4633 26.6772 37.9359C27.2046 37.4084 27.5009 36.693 27.5009 35.9471C27.5009 35.2012 27.2046 34.4858 26.6772 33.9584C26.1497 33.4309 25.4344 33.1346 24.6884 33.1346C23.9425 33.1346 23.2271 33.4309 22.6997 33.9584C22.1723 34.4858 21.8759 35.2012 21.8759 35.9471Z" fill="#5A0619"/>
</svg>
