<svg width="48" height="48" viewBox="0 0 48 48" fill="none" xmlns="http://www.w3.org/2000/svg">
<path d="M42.8147 39.5056L33.9938 30.6846C36.1175 27.8575 37.2639 24.4162 37.26 20.8802C37.26 11.8484 29.9119 4.50024 20.88 4.50024C11.8481 4.50024 4.5 11.8484 4.5 20.8802C4.5 29.9121 11.8481 37.2602 20.88 37.2602C24.416 37.2642 27.8572 36.1177 30.6844 33.994L39.5053 42.8149C39.9518 43.2141 40.5342 43.4271 41.1329 43.4104C41.7316 43.3936 42.3011 43.1483 42.7246 42.7248C43.1481 42.3013 43.3934 41.7318 43.4101 41.1331C43.4269 40.5345 43.2138 39.9521 42.8147 39.5056ZM9.18 20.8802C9.18 18.5662 9.86619 16.3041 11.1518 14.3801C12.4374 12.456 14.2647 10.9564 16.4026 10.0709C18.5405 9.18531 20.893 8.95361 23.1626 9.40506C25.4321 9.8565 27.5169 10.9708 29.1532 12.6071C30.7894 14.2434 31.9037 16.3281 32.3552 18.5977C32.8066 20.8673 32.5749 23.2197 31.6894 25.3576C30.8038 27.4955 29.3042 29.3228 27.3802 30.6084C25.4561 31.8941 23.194 32.5802 20.88 32.5802C17.7781 32.5765 14.8043 31.3427 12.611 29.1493C10.4176 26.9559 9.18372 23.9821 9.18 20.8802Z" fill="#5A0619"/>
</svg>
