<svg width="416" height="48" viewBox="0 0 416 48" fill="none" xmlns="http://www.w3.org/2000/svg">
<path d="M32.002 4C43.048 4 52.002 12.954 52.002 24C52.002 35.046 43.048 44 32.002 44C28.4675 44.0061 24.9951 43.0707 21.942 41.29L12.01 44L14.714 34.064C12.9319 31.0099 11.9958 27.536 12.002 24C12.002 12.954 20.956 4 32.002 4ZM25.186 14.6L24.786 14.616C24.5274 14.6338 24.2747 14.7017 24.042 14.816C23.8251 14.939 23.6271 15.0926 23.454 15.272C23.214 15.498 23.078 15.694 22.932 15.884C22.1922 16.8458 21.7939 18.0266 21.8 19.24C21.804 20.22 22.06 21.174 22.46 22.066C23.278 23.87 24.624 25.78 26.4 27.55C26.828 27.976 27.248 28.404 27.7 28.802C29.9068 30.7448 32.5365 32.1459 35.38 32.894L36.516 33.068C36.886 33.088 37.256 33.06 37.628 33.042C38.2104 33.0113 38.779 32.8536 39.294 32.58C39.5557 32.4447 39.8113 32.2979 40.06 32.14C40.06 32.14 40.1447 32.0827 40.31 31.96C40.58 31.76 40.746 31.618 40.97 31.384C41.138 31.2107 41.278 31.0093 41.39 30.78C41.546 30.454 41.702 29.832 41.766 29.314C41.814 28.918 41.8 28.702 41.794 28.568C41.786 28.354 41.608 28.132 41.414 28.038L40.25 27.516C40.25 27.516 38.51 26.758 37.446 26.274C37.3346 26.2255 37.2153 26.1977 37.094 26.192C36.9571 26.1777 36.8188 26.193 36.6884 26.2368C36.5579 26.2806 36.4384 26.352 36.338 26.446C36.328 26.442 36.194 26.556 34.748 28.308C34.665 28.4195 34.5507 28.5038 34.4196 28.5501C34.2885 28.5964 34.1466 28.6026 34.012 28.568C33.8816 28.5333 33.754 28.4891 33.63 28.436C33.382 28.332 33.296 28.292 33.126 28.22C31.9777 27.7198 30.9149 27.043 29.976 26.214C29.724 25.994 29.49 25.754 29.25 25.522C28.4632 24.7684 27.7775 23.916 27.21 22.986L27.092 22.796C27.0085 22.6676 26.9401 22.53 26.888 22.386C26.812 22.092 27.01 21.856 27.01 21.856C27.01 21.856 27.496 21.324 27.722 21.036C27.942 20.756 28.128 20.484 28.248 20.29C28.484 19.91 28.558 19.52 28.434 19.218C27.874 17.85 27.2953 16.4893 26.698 15.136C26.58 14.868 26.23 14.676 25.912 14.638C25.804 14.6247 25.696 14.614 25.588 14.606C25.3194 14.5906 25.0502 14.5933 24.782 14.614L25.186 14.6Z" fill="#5A0619"/>
<path d="M120 4C108.96 4 100 12.96 100 24C100 35.04 108.96 44 120 44C131.04 44 140 35.04 140 24C140 12.96 131.04 4 120 4ZM129.28 17.6C128.98 20.76 127.68 28.44 127.02 31.98C126.74 33.48 126.18 33.98 125.66 34.04C124.5 34.14 123.62 33.28 122.5 32.54C120.74 31.38 119.74 30.66 118.04 29.54C116.06 28.24 117.34 27.52 118.48 26.36C118.78 26.06 123.9 21.4 124 20.98C124.014 20.9164 124.012 20.8503 123.995 20.7876C123.977 20.7249 123.945 20.6673 123.9 20.62C123.78 20.52 123.62 20.56 123.48 20.58C123.3 20.62 120.5 22.48 115.04 26.16C114.24 26.7 113.52 26.98 112.88 26.96C112.16 26.94 110.8 26.56 109.78 26.22C108.52 25.82 107.54 25.6 107.62 24.9C107.66 24.54 108.16 24.18 109.1 23.8C114.94 21.26 118.82 19.58 120.76 18.78C126.32 16.46 127.46 16.06 128.22 16.06C128.38 16.06 128.76 16.1 129 16.3C129.2 16.46 129.26 16.68 129.28 16.84C129.26 16.96 129.3 17.32 129.28 17.6Z" fill="#5A0619"/>
<path d="M228 24C228 12.96 219.04 4 208 4C196.96 4 188 12.96 188 24C188 33.68 194.88 41.74 204 43.6V30H200V24H204V19C204 15.14 207.14 12 211 12H216V18H212C210.9 18 210 18.9 210 20V24H216V30H210V43.9C220.1 42.9 228 34.38 228 24Z" fill="#5A0619"/>
<path d="M307.374 6.12598L297.382 17.548L288.742 6.12598H276.224L291.178 25.678L277.006 41.876H283.074L294.012 29.376L303.572 41.876H315.776L300.188 21.268L313.438 6.12598H307.374ZM305.246 38.246L283.308 9.56398H286.914L308.606 38.244L305.246 38.246Z" fill="#5A0619"/>
<path d="M368 40C366.9 40 365.959 39.6087 365.176 38.826C364.393 38.0433 364.001 37.1013 364 36V12C364 10.9 364.392 9.95867 365.176 9.176C365.96 8.39333 366.901 8.00133 368 8H400C401.1 8 402.042 8.392 402.826 9.176C403.61 9.96 404.001 10.9013 404 12V36C404 37.1 403.609 38.042 402.826 38.826C402.043 39.61 401.101 40.0013 400 40H368ZM384 25.65C384.167 25.65 384.342 25.6247 384.526 25.574C384.71 25.5233 384.885 25.4487 385.05 25.35L399.2 16.5C399.467 16.3333 399.667 16.1253 399.8 15.876C399.933 15.6267 400 15.3513 400 15.05C400 14.3833 399.717 13.8833 399.15 13.55C398.583 13.2167 398 13.2333 397.4 13.6L384 22L370.6 13.6C370 13.2333 369.417 13.2253 368.85 13.576C368.283 13.9267 368 14.418 368 15.05C368 15.3833 368.067 15.6753 368.2 15.926C368.333 16.1767 368.533 16.368 368.8 16.5L382.95 25.35C383.117 25.45 383.292 25.5253 383.476 25.576C383.66 25.6267 383.835 25.6513 384 25.65Z" fill="#5A0619"/>
</svg>
