<svg width="48" height="48" viewBox="0 0 48 48" fill="none" xmlns="http://www.w3.org/2000/svg">
<path d="M24 4.00024C12.96 4.00024 4 12.9602 4 24.0002C4 35.0402 12.96 44.0002 24 44.0002C35.04 44.0002 44 35.0402 44 24.0002C44 12.9602 35.04 4.00024 24 4.00024ZM33.28 17.6002C32.98 20.7602 31.68 28.4402 31.02 31.9802C30.74 33.4802 30.18 33.9802 29.66 34.0402C28.5 34.1402 27.62 33.2802 26.5 32.5402C24.74 31.3802 23.74 30.6602 22.04 29.5402C20.06 28.2402 21.34 27.5202 22.48 26.3602C22.78 26.0602 27.9 21.4002 28 20.9802C28.0139 20.9166 28.012 20.8506 27.9946 20.7879C27.9772 20.7251 27.9447 20.6676 27.9 20.6202C27.78 20.5202 27.62 20.5602 27.48 20.5802C27.3 20.6202 24.5 22.4802 19.04 26.1602C18.24 26.7002 17.52 26.9802 16.88 26.9602C16.16 26.9402 14.8 26.5602 13.78 26.2202C12.52 25.8202 11.54 25.6002 11.62 24.9002C11.66 24.5402 12.16 24.1802 13.1 23.8002C18.94 21.2602 22.82 19.5802 24.76 18.7802C30.32 16.4602 31.46 16.0602 32.22 16.0602C32.38 16.0602 32.76 16.1002 33 16.3002C33.2 16.4602 33.26 16.6802 33.28 16.8402C33.26 16.9602 33.3 17.3202 33.28 17.6002Z" fill="#5A0619"/>
</svg>
