<svg viewBox="0 0 48 48" xmlns="http://www.w3.org/2000/svg">
<path fill-rule="evenodd" clip-rule="evenodd" d="M26 8.00024C26.4899 8.00031 26.9627 8.18016 27.3287 8.50567C27.6948 8.83119 27.9287 9.27974 27.986 9.76624L28 10.0002C28.0006 10.51 28.1958 11.0003 28.5457 11.371C28.8956 11.7417 29.3739 11.9647 29.8828 11.9946C30.3917 12.0245 30.8928 11.8589 31.2837 11.5317C31.6746 11.2045 31.9258 10.7404 31.986 10.2342L32 10.0002C32 9.46981 32.2107 8.9611 32.5858 8.58603C32.9609 8.21096 33.4696 8.00024 34 8.00024H38C39.5913 8.00024 41.1174 8.63239 42.2426 9.7576C43.3679 10.8828 44 12.4089 44 14.0002V34.0002C44 35.5915 43.3679 37.1177 42.2426 38.2429C41.1174 39.3681 39.5913 40.0002 38 40.0002H34C33.5101 40.0002 33.0373 39.8203 32.6713 39.4948C32.3052 39.1693 32.0713 38.7207 32.014 38.2342L32 38.0002C31.9994 37.4905 31.8042 37.0002 31.4543 36.6295C31.1044 36.2588 30.6261 36.0358 30.1172 36.0059C29.6083 35.976 29.1072 36.1416 28.7163 36.4688C28.3254 36.796 28.0742 37.2601 28.014 37.7662L28 38.0002C28 38.5307 27.7893 39.0394 27.4142 39.4145C27.0391 39.7895 26.5304 40.0002 26 40.0002H10C8.4087 40.0002 6.88258 39.3681 5.75736 38.2429C4.63214 37.1177 4 35.5915 4 34.0002V14.0002C4 12.4089 4.63214 10.8828 5.75736 9.7576C6.88258 8.63239 8.4087 8.00024 10 8.00024H26ZM30 26.0002C29.4696 26.0002 28.9609 26.211 28.5858 26.586C28.2107 26.9611 28 27.4698 28 28.0002V30.0002C28 30.5307 28.2107 31.0394 28.5858 31.4145C28.9609 31.7895 29.4696 32.0002 30 32.0002C30.5304 32.0002 31.0391 31.7895 31.4142 31.4145C31.7893 31.0394 32 30.5307 32 30.0002V28.0002C32 27.4698 31.7893 26.9611 31.4142 26.586C31.0391 26.211 30.5304 26.0002 30 26.0002ZM30 16.0002C29.5101 16.0003 29.0373 16.1802 28.6713 16.5057C28.3052 16.8312 28.0713 17.2797 28.014 17.7662L28 18.0002V20.0002C28.0006 20.51 28.1958 21.0003 28.5457 21.371C28.8956 21.7417 29.3739 21.9647 29.8828 21.9946C30.3917 22.0245 30.8928 21.8589 31.2837 21.5317C31.6746 21.2045 31.9258 20.7404 31.986 20.2342L32 20.0002V18.0002C32 17.4698 31.7893 16.9611 31.4142 16.586C31.0391 16.211 30.5304 16.0002 30 16.0002Z" fill="#5A0619"/>
</svg>
