<svg viewBox="0 0 48 48" xmlns="http://www.w3.org/2000/svg">
  <g fill="none" stroke="currentColor" stroke-width="4" stroke-linecap="round" stroke-linejoin="round">
    <path d="M7.003 8.948L16.41 8.948L16.41 18.356M40.997 39.053L31.59 39.053L31.59 29.645M27.826 9.065C30.955 9.458 33.88 10.825 36.19 12.97C38.501 15.116 40.079 17.933 40.703 21.023C41.326 24.114 40.964 27.322 39.666 30.196C38.369 33.07 36.202 35.463 33.471 37.039M20.174 38.936C17.045 38.542 14.12 37.176 11.81 35.03C9.499 32.885 7.921 30.068 7.297 26.977C6.674 23.887 7.036 20.678 8.334 17.805C9.631 14.931 11.798 12.537 14.529 10.961"/>
  </g>
</svg>