<svg viewBox="0 0 48 48" xmlns="http://www.w3.org/2000/svg">
<path d="M7.00291 8.94792L16.4106 8.94792L16.4106 18.3556M40.9971 39.0525L31.5894 39.0525L31.5894 29.6448M27.8263 9.06449C30.9545 9.45834 33.8802 10.8245 36.1904 12.9701C38.5007 15.1157 40.079 17.9326 40.7026 21.0232C41.3262 24.1139 40.9637 27.3223 39.6662 30.1959C38.3687 33.0695 36.2017 35.4632 33.4709 37.0392M20.1737 38.9359C17.0454 38.5421 14.1198 37.176 11.8096 35.0303C9.4993 32.8847 7.92103 30.0679 7.29741 26.9772C6.6738 23.8865 7.03631 20.6781 8.33382 17.8045C9.63132 14.9309 11.7983 12.5372 14.5291 10.9612" stroke="#5A0619" stroke-width="4" stroke-linecap="round" stroke-linejoin="round"/>
</svg>
