<svg width="48" height="48" viewBox="0 0 48 48" fill="none" xmlns="http://www.w3.org/2000/svg">
<path d="M40.7398 42.5002C40.7398 42.8981 40.5817 43.2796 40.3004 43.5609C40.0191 43.8422 39.6376 44.0002 39.2398 44.0002H8.75977C8.36194 44.0002 7.98041 43.8422 7.69911 43.5609C7.4178 43.2796 7.25977 42.8981 7.25977 42.5002C7.25977 34.3002 16.2598 27.9402 23.9998 27.9402C31.7398 27.9402 40.7398 34.3002 40.7398 42.5002ZM34.1998 14.2202C34.1958 16.2368 33.5942 18.2069 32.471 19.8816C31.3478 21.5563 29.7534 22.8606 27.8893 23.6295C26.0251 24.3985 23.9749 24.5976 21.9976 24.2018C20.0203 23.806 18.2047 22.833 16.7802 21.4057C15.3557 19.9784 14.3863 18.1609 13.9943 16.1828C13.6024 14.2048 13.8055 12.1549 14.5781 10.2923C15.3507 8.42963 16.6581 6.83778 18.335 5.71788C20.012 4.59797 21.9832 4.00025 23.9998 4.00024C26.7068 4.00554 29.3012 5.08463 31.2135 7.00067C33.1258 8.91672 34.1998 11.5132 34.1998 14.2202Z" fill="#5A0619"/>
</svg>
