<svg viewBox="0 0 48 48" xmlns="http://www.w3.org/2000/svg">
<path d="M24.002 4.00024C35.048 4.00024 44.002 12.9542 44.002 24.0002C44.002 35.0462 35.048 44.0002 24.002 44.0002C20.4675 44.0063 16.9951 43.0709 13.942 41.2902L4.00998 44.0002L6.71398 34.0642C4.9319 31.0101 3.99579 27.5363 4.00198 24.0002C4.00198 12.9542 12.956 4.00024 24.002 4.00024ZM17.186 14.6002L16.786 14.6162C16.5274 14.6341 16.2747 14.702 16.042 14.8162C15.8251 14.9393 15.6271 15.0928 15.454 15.2722C15.214 15.4982 15.078 15.6942 14.932 15.8842C14.1922 16.8461 13.7939 18.0269 13.8 19.2402C13.804 20.2202 14.06 21.1742 14.46 22.0662C15.278 23.8702 16.624 25.7802 18.4 27.5502C18.828 27.9762 19.248 28.4042 19.7 28.8022C21.9068 30.745 24.5365 32.1462 27.38 32.8942L28.516 33.0682C28.886 33.0882 29.256 33.0602 29.628 33.0422C30.2104 33.0115 30.779 32.8539 31.294 32.5802C31.5557 32.4449 31.8113 32.2981 32.06 32.1402C32.06 32.1402 32.1447 32.0829 32.31 31.9602C32.58 31.7602 32.746 31.6182 32.97 31.3842C33.138 31.2109 33.278 31.0096 33.39 30.7802C33.546 30.4542 33.702 29.8322 33.766 29.3142C33.814 28.9182 33.8 28.7022 33.794 28.5682C33.786 28.3542 33.608 28.1322 33.414 28.0382L32.25 27.5162C32.25 27.5162 30.51 26.7582 29.446 26.2742C29.3346 26.2258 29.2153 26.198 29.094 26.1922C28.9571 26.1779 28.8188 26.1932 28.6884 26.237C28.5579 26.2808 28.4384 26.3522 28.338 26.4462C28.328 26.4422 28.194 26.5562 26.748 28.3082C26.665 28.4198 26.5507 28.5041 26.4196 28.5504C26.2885 28.5967 26.1466 28.6029 26.012 28.5682C25.8816 28.5335 25.754 28.4894 25.63 28.4362C25.382 28.3322 25.296 28.2922 25.126 28.2202C23.9777 27.7201 22.9149 27.0432 21.976 26.2142C21.724 25.9942 21.49 25.7542 21.25 25.5222C20.4632 24.7687 19.7775 23.9162 19.21 22.9862L19.092 22.7962C19.0085 22.6678 18.9401 22.5303 18.888 22.3862C18.812 22.0922 19.01 21.8562 19.01 21.8562C19.01 21.8562 19.496 21.3242 19.722 21.0362C19.942 20.7562 20.128 20.4842 20.248 20.2902C20.484 19.9102 20.558 19.5202 20.434 19.2182C19.874 17.8502 19.2953 16.4896 18.698 15.1362C18.58 14.8682 18.23 14.6762 17.912 14.6382C17.804 14.6249 17.696 14.6142 17.588 14.6062C17.3194 14.5908 17.0502 14.5935 16.782 14.6142L17.186 14.6002Z" fill="#5A0619"/>
</svg>
