<svg width="350" height="49" viewBox="0 0 350 49" fill="none" xmlns="http://www.w3.org/2000/svg">
<path d="M39.002 4.14307C50.048 4.14307 59.002 13.0971 59.002 24.1431C59.002 35.1891 50.048 44.1431 39.002 44.1431C35.4675 44.1492 31.9951 43.2138 28.942 41.4331L19.01 44.1431L21.714 34.2071C19.9319 31.1529 18.9958 27.6791 19.002 24.1431C19.002 13.0971 27.956 4.14307 39.002 4.14307ZM32.186 14.7431L31.786 14.7591C31.5274 14.7769 31.2747 14.8448 31.042 14.9591C30.8251 15.0821 30.6271 15.2357 30.454 15.4151C30.214 15.6411 30.078 15.8371 29.932 16.0271C29.1922 16.9889 28.7939 18.1697 28.8 19.3831C28.804 20.3631 29.06 21.3171 29.46 22.2091C30.278 24.0131 31.624 25.9231 33.4 27.6931C33.828 28.1191 34.248 28.5471 34.7 28.9451C36.9068 30.8879 39.5365 32.289 42.38 33.0371L43.516 33.2111C43.886 33.2311 44.256 33.2031 44.628 33.1851C45.2104 33.1544 45.779 32.9967 46.294 32.7231C46.5557 32.5878 46.8113 32.4409 47.06 32.2831C47.06 32.2831 47.1447 32.2257 47.31 32.1031C47.58 31.9031 47.746 31.7611 47.97 31.5271C48.138 31.3537 48.278 31.1524 48.39 30.9231C48.546 30.5971 48.702 29.9751 48.766 29.4571C48.814 29.0611 48.8 28.8451 48.794 28.7111C48.786 28.4971 48.608 28.2751 48.414 28.1811L47.25 27.6591C47.25 27.6591 45.51 26.9011 44.446 26.4171C44.3346 26.3686 44.2153 26.3408 44.094 26.3351C43.9571 26.3207 43.8188 26.336 43.6884 26.3798C43.5579 26.4237 43.4384 26.495 43.338 26.5891C43.328 26.5851 43.194 26.6991 41.748 28.4511C41.665 28.5626 41.5507 28.6469 41.4196 28.6932C41.2885 28.7395 41.1466 28.7457 41.012 28.7111C40.8816 28.6763 40.754 28.6322 40.63 28.5791C40.382 28.4751 40.296 28.4351 40.126 28.3631C38.9777 27.8629 37.9149 27.186 36.976 26.3571C36.724 26.1371 36.49 25.8971 36.25 25.6651C35.4632 24.9115 34.7775 24.059 34.21 23.1291L34.092 22.9391C34.0085 22.8107 33.9401 22.6731 33.888 22.5291C33.812 22.2351 34.01 21.9991 34.01 21.9991C34.01 21.9991 34.496 21.4671 34.722 21.1791C34.942 20.8991 35.128 20.6271 35.248 20.4331C35.484 20.0531 35.558 19.6631 35.434 19.3611C34.874 17.9931 34.2953 16.6324 33.698 15.2791C33.58 15.0111 33.23 14.8191 32.912 14.7811C32.804 14.7677 32.696 14.7571 32.588 14.7491C32.3194 14.7337 32.0502 14.7363 31.782 14.7571L32.186 14.7431Z" fill="#FFFFFA"/>
<path d="M107 4.14307C95.96 4.14307 87 13.1031 87 24.1431C87 35.1831 95.96 44.1431 107 44.1431C118.04 44.1431 127 35.1831 127 24.1431C127 13.1031 118.04 4.14307 107 4.14307ZM116.28 17.7431C115.98 20.9031 114.68 28.5831 114.02 32.1231C113.74 33.6231 113.18 34.1231 112.66 34.1831C111.5 34.2831 110.62 33.4231 109.5 32.6831C107.74 31.5231 106.74 30.8031 105.04 29.6831C103.06 28.3831 104.34 27.6631 105.48 26.5031C105.78 26.2031 110.9 21.5431 111 21.1231C111.014 21.0595 111.012 20.9934 110.995 20.9307C110.977 20.8679 110.945 20.8104 110.9 20.7631C110.78 20.6631 110.62 20.7031 110.48 20.7231C110.3 20.7631 107.5 22.6231 102.04 26.3031C101.24 26.8431 100.52 27.1231 99.88 27.1031C99.16 27.0831 97.8 26.7031 96.78 26.3631C95.52 25.9631 94.54 25.7431 94.62 25.0431C94.66 24.6831 95.16 24.3231 96.1 23.9431C101.94 21.4031 105.82 19.7231 107.76 18.9231C113.32 16.6031 114.46 16.2031 115.22 16.2031C115.38 16.2031 115.76 16.2431 116 16.4431C116.2 16.6031 116.26 16.8231 116.28 16.9831C116.26 17.1031 116.3 17.4631 116.28 17.7431Z" fill="#FFFFFA"/>
<path d="M195 24.1431C195 13.1031 186.04 4.14307 175 4.14307C163.96 4.14307 155 13.1031 155 24.1431C155 33.8231 161.88 41.8831 171 43.7431V30.1431H167V24.1431H171V19.1431C171 15.2831 174.14 12.1431 178 12.1431H183V18.1431H179C177.9 18.1431 177 19.0431 177 20.1431V24.1431H183V30.1431H177V44.0431C187.1 43.0431 195 34.5231 195 24.1431Z" fill="#FFFFFA"/>
<path d="M254.374 6.26904L244.382 17.691L235.742 6.26904H223.224L238.178 25.821L224.006 42.019H230.074L241.012 29.519L250.572 42.019H262.776L247.188 21.411L260.438 6.26904H254.374ZM252.246 38.389L230.308 9.70704H233.914L255.606 38.387L252.246 38.389Z" fill="#FFFFFA"/>
<path d="M295 40.1431C293.9 40.1431 292.959 39.7517 292.176 38.9691C291.393 38.1864 291.001 37.2444 291 36.1431V12.1431C291 11.0431 291.392 10.1017 292.176 9.31907C292.96 8.5364 293.901 8.1444 295 8.14307H327C328.1 8.14307 329.042 8.53507 329.826 9.31907C330.61 10.1031 331.001 11.0444 331 12.1431V36.1431C331 37.2431 330.609 38.1851 329.826 38.9691C329.043 39.7531 328.101 40.1444 327 40.1431H295ZM311 25.7931C311.167 25.7931 311.342 25.7677 311.526 25.7171C311.71 25.6664 311.885 25.5917 312.05 25.4931L326.2 16.6431C326.467 16.4764 326.667 16.2684 326.8 16.0191C326.933 15.7697 327 15.4944 327 15.1931C327 14.5264 326.717 14.0264 326.15 13.6931C325.583 13.3597 325 13.3764 324.4 13.7431L311 22.1431L297.6 13.7431C297 13.3764 296.417 13.3684 295.85 13.7191C295.283 14.0697 295 14.5611 295 15.1931C295 15.5264 295.067 15.8184 295.2 16.0691C295.333 16.3197 295.533 16.5111 295.8 16.6431L309.95 25.4931C310.117 25.5931 310.292 25.6684 310.476 25.7191C310.66 25.7697 310.835 25.7944 311 25.7931Z" fill="#FFFFFA"/>
</svg>
